<mxfile host="app.diagrams.net" modified="2024-07-26T01:41:04.576Z" agent="Mozilla/5.0 (Windows NT 10.0; Win64; x64) AppleWebKit/537.36 (KHTML, like Gecko) Chrome/127.0.0.0 Safari/537.36" version="24.7.1" etag="h3fs2q3iTwlmMUoRnWRi" type="github">
  <diagram name="Trang-1" id="ydawIo-OmPURI-nak9X6">
    <mxGraphModel>
      <root>
        <mxCell id="0" />
        <mxCell id="1" parent="0" />
      </root>
    </mxGraphModel>
  </diagram>
</mxfile>
